<svg width="48" height="48" viewBox="0 0 48 48" fill="none" xmlns="http://www.w3.org/2000/svg">
<path d="M0 24C0 10.7452 10.7452 0 24 0C37.2548 0 48 10.7452 48 24C48 37.2548 37.2548 48 24 48C10.7452 48 0 37.2548 0 24Z" fill="#D8D8D8"/>
<g clip-path="url(#clip0)">
<path d="M33.7843 13.001H14.2142C13.5441 13.001 13 13.544 13 14.2152V33.7857C13 34.4569 13.5441 35.0006 14.2142 35.0006H24.7502V26.4811H21.8835V23.1604H24.7502V20.7117C24.7502 17.8706 26.4849 16.3228 29.0199 16.3228C30.2352 16.3228 31.2773 16.4137 31.5812 16.4532V19.4228L29.8229 19.4235C28.4446 19.4235 28.1787 20.0788 28.1787 21.0399V23.1593H31.4671L31.0371 26.4796H28.1784V34.9996H33.784C34.4548 34.9996 34.9993 34.4551 34.9993 33.7857V14.2145C34.9989 13.544 34.4552 13.001 33.7843 13.001Z" fill="white"/>
</g>
<defs>
<clipPath id="clip0">
<rect width="22" height="22" fill="white" transform="translate(13 13)"/>
</clipPath>
</defs>
</svg>
